HIERARCHY
ROOT root
{
	OFFSET 0.000000 0.000000 0.000000
	CHANNELS 6 Xposition Yposition Zposition Zrotation Yrotation Xrotation
	JOINT lhip
	{
		OFFSET 0.058581 -0.082280 -0.017664
		CHANNELS 3 Zrotation Yrotation Xrotation
		JOINT lknee
		{
			OFFSET 0.043451 -0.386469 0.008037
			CHANNELS 3 Zrotation Yrotation Xrotation
			JOINT lankle
			{
				OFFSET -0.014790 -0.426874 -0.037428
				CHANNELS 3 Zrotation Yrotation Xrotation
				JOINT ltoe
				{
					OFFSET 0.041054 -0.060286 0.122042
					CHANNELS 3 Zrotation Yrotation Xrotation
					End Site
					{
						OFFSET 0.000000 0.000000 0.000000
					}
				}
			}
		}
	}
	JOINT rhip
	{
		OFFSET -0.060310 -0.090513 -0.013543
		CHANNELS 3 Zrotation Yrotation Xrotation
		JOINT rknee
		{
			OFFSET -0.043257 -0.383688 -0.004843
			CHANNELS 3 Zrotation Yrotation Xrotation
			JOINT rankle
			{
				OFFSET 0.019056 -0.420046 -0.034562
				CHANNELS 3 Zrotation Yrotation Xrotation
				JOINT rtoe
				{
					OFFSET -0.034840 -0.062106 0.130323
					CHANNELS 3 Zrotation Yrotation Xrotation
					End Site
					{
						OFFSET 0.000000 0.000000 0.000000
					}
				}
			}
		}
	}
	JOINT lowerback
	{
		OFFSET 0.004439 0.124404 -0.038385
		CHANNELS 3 Zrotation Yrotation Xrotation
		JOINT upperback
		{
			OFFSET 0.004488 0.137956 0.026820
			CHANNELS 3 Zrotation Yrotation Xrotation
			JOINT chest
			{
				OFFSET -0.002265 0.056032 0.002855
				CHANNELS 3 Zrotation Yrotation Xrotation
				JOINT lowerneck
				{
					OFFSET -0.013390 0.211636 -0.033468
					CHANNELS 3 Zrotation Yrotation Xrotation
					JOINT upperneck
					{
						OFFSET 0.010113 0.088937 0.050410
						CHANNELS 3 Zrotation Yrotation Xrotation
						End Site
						{
							OFFSET 0.000000 0.000000 0.000000
						}
					}
				}
				JOINT lclavicle
				{
					OFFSET 0.071702 0.114000 -0.018898
					CHANNELS 3 Zrotation Yrotation Xrotation
					JOINT lshoulder
					{
						OFFSET 0.122921 0.045205 -0.019046
						CHANNELS 3 Zrotation Yrotation Xrotation
						JOINT lelbow
						{
							OFFSET 0.255332 -0.015649 -0.022946
							CHANNELS 3 Zrotation Yrotation Xrotation
							JOINT lwrist
							{
								OFFSET 0.265709 0.012698 -0.007375
								CHANNELS 3 Zrotation Yrotation Xrotation
								End Site
								{
									OFFSET 0.000000 0.000000 0.000000
								}
							}
						}
					}
				}
				JOINT rclavicle
				{
					OFFSET -0.082954 0.112472 -0.023707
					CHANNELS 3 Zrotation Yrotation Xrotation
					JOINT rshoulder
					{
						OFFSET -0.113228 0.046853 -0.008472
						CHANNELS 3 Zrotation Yrotation Xrotation
						JOINT relbow
						{
							OFFSET -0.260127 -0.014369 -0.031269
							CHANNELS 3 Zrotation Yrotation Xrotation
							JOINT rwrist
							{
								OFFSET -0.269108 0.006794 -0.006027
								CHANNELS 3 Zrotation Yrotation Xrotation
								End Site
								{
									OFFSET 0.000000 0.000000 0.000000
								}
							}
						}
					}
				}
			}
		}
	}
}
MOTION
Frames: 8
Frame Time: 0.033333
-0.795305 0.970324 0.689832 74.458241 -2.588671 81.604093 5.981052 2.188717 3.644228 -31.030885 -19.099410 90.508085 -12.453207 -10.295385 -8.889318 0.000000 -0.000000 0.000000 3.987395 2.099010 -47.884740 -2.303592 -12.793508 101.576485 -5.842754 -15.201243 -39.261491 0.000000 -0.000000 0.000000 -1.297540 -11.937753 23.291901 1.864766 -4.863592 -6.307113 -1.934153 -5.894979 4.328591 1.211779 15.301251 -4.163399 -5.783758 11.617070 8.828515 -7.624885 -2.967600 -9.688071 -27.158968 -10.910654 -11.708973 84.475531 -63.002186 -77.050252 15.527691 -22.789487 -13.178472 -0.764343 -1.298951 -19.185706 9.029819 17.914831 -14.840310 -151.811943 40.477355 -120.332533 -5.515360 32.021160 26.046216 
-0.773885 0.961341 0.696384 75.131205 -2.526911 83.777075 5.847149 1.966876 2.838417 -27.745514 -19.003370 87.837059 -14.201203 -8.531489 -3.574106 0.000000 -0.000000 0.000000 4.499628 2.989985 -47.390469 -2.984300 -12.961357 100.703601 -6.031976 -16.423544 -40.381811 0.000000 -0.000000 0.000000 -1.363581 -11.695500 22.701316 2.823430 -4.861939 -5.862327 -1.672017 -6.236049 3.683619 1.092424 16.882844 -5.652896 -6.786907 10.857394 8.769635 -7.748030 -2.230481 -9.156147 -28.629183 -11.077630 -10.772429 88.141429 -65.762097 -77.888918 12.077099 -23.667338 -13.192186 0.823626 -2.043499 -18.740563 9.091972 18.316165 -14.503326 -154.077961 38.207247 -119.959979 -6.532621 32.577479 27.781139 
-0.751372 0.954223 0.708721 75.429185 -3.149296 85.672127 5.719165 2.347492 1.681091 -24.061629 -18.209313 84.675887 -16.285363 -6.999233 3.350692 0.000000 -0.000000 0.000000 4.075097 3.030622 -46.342213 -3.956331 -12.321635 99.494390 -6.054381 -15.286786 -40.302930 0.000000 -0.000000 0.000000 -1.519498 -11.452327 21.953187 3.194822 -5.144115 -5.743076 -1.851244 -6.689735 4.218038 1.380282 18.061170 -6.839164 -7.628983 10.475267 7.583908 -9.044272 -0.643349 -8.188365 -30.152869 -9.950522 -9.993106 91.539711 -68.863285 -79.119780 10.072747 -24.709097 -11.992835 2.564376 -3.272041 -18.437994 9.028148 19.933526 -14.495255 -157.598831 36.808866 -121.040121 -9.632502 32.128030 29.003862 
-0.725008 0.944020 0.729900 75.326564 -3.667583 87.800907 6.634525 2.814144 -1.325377 -19.407035 -14.920324 82.121749 -17.830015 -6.563198 9.290117 0.000000 -0.000000 0.000000 3.997135 3.357891 -44.302626 -3.046192 -11.462749 95.953938 -6.186887 -14.880326 -39.334085 0.000000 -0.000000 0.000000 -2.325876 -11.180479 21.451298 3.503040 -6.043101 -5.117709 -1.240405 -7.188986 4.027467 1.948863 18.160414 -6.420723 -8.136522 12.855378 5.395909 -11.427281 1.937665 -6.946783 -33.540382 -6.654053 -9.717038 90.501801 -72.333660 -78.450941 8.613530 -24.770813 -10.115998 4.515246 -3.980369 -17.305125 11.790822 23.627960 -12.859105 -161.026029 36.053201 -124.900445 -11.300335 33.583315 38.713620 
-0.710433 0.937652 0.744221 75.023568 -3.892004 89.011318 7.337968 2.435874 -4.310563 -17.458438 -11.157070 82.387197 -15.967740 -6.659554 6.984997 0.000000 -0.000000 0.000000 4.287775 3.977978 -42.602143 -2.661564 -10.859073 93.085898 -5.895298 -14.819919 -39.213288 0.000000 -0.000000 0.000000 -3.297537 -10.588651 21.281491 4.092027 -6.729540 -4.892503 -0.803854 -7.647125 4.338898 2.716200 18.104972 -6.432713 -8.366144 14.229453 4.605793 -12.819160 4.065683 -5.614461 -36.760498 -5.397622 -10.252739 85.074086 -73.234292 -72.347889 9.007319 -24.508289 -11.555738 6.308485 -4.781244 -16.380382 14.004309 25.770811 -11.769559 -162.890550 36.623750 -125.869098 -10.451505 35.239894 38.111726 
-0.692433 0.929469 0.764178 74.357281 -3.928718 90.478003 8.820339 2.282765 -10.171206 -14.259793 -5.368905 84.614442 -8.388083 -4.358488 -6.637277 0.000000 -0.000000 0.000000 5.033003 5.256868 -39.992506 -1.575175 -10.202283 88.330639 -5.295426 -16.460664 -38.728635 0.000000 -0.000000 0.000000 -4.556883 -9.430658 20.907407 4.980089 -7.411532 -4.587692 -0.733228 -7.823619 5.193725 4.232663 18.035496 -6.141378 -8.330128 14.863513 3.421825 -14.629862 7.133327 -4.083480 -40.181158 -4.803507 -10.696556 74.330700 -74.286319 -59.541807 10.984275 -22.808033 -14.159400 8.359181 -6.446935 -14.585569 17.118352 26.603843 -8.066345 -164.561220 37.012907 -122.636649 -13.880777 34.672733 35.285497 
-0.674659 0.921250 0.785255 73.941559 -3.552383 91.643013 10.369323 3.482260 -17.710545 -11.803304 -0.544417 88.029620 -5.960361 -2.783543 -15.397850 0.000000 -0.000000 0.000000 6.389361 5.989249 -36.597642 -1.252918 -9.092351 83.175412 -4.436969 -16.893143 -39.112792 0.000000 -0.000000 0.000000 -5.510995 -8.298190 21.099971 5.384637 -8.532470 -4.648436 -0.223347 -7.814289 6.115796 5.513259 18.130935 -5.909164 -8.097703 14.751286 2.428197 -16.629720 9.512762 -2.819623 -43.205647 -2.853975 -12.242427 67.943490 -75.707371 -51.017046 13.171417 -21.884658 -16.607704 11.305544 -7.656664 -13.978072 20.935873 29.962481 -9.295844 -169.020690 40.336743 -125.706067 -19.120949 37.354875 28.544626 
-0.655838 0.913043 0.805132 73.366117 -3.130853 92.517241 11.949545 3.553670 -25.979130 -9.559511 4.806023 90.121546 -4.187919 -3.522011 -21.159193 0.000000 -0.000000 0.000000 7.666130 7.209187 -32.899238 -0.694398 -7.753649 78.020666 -3.758323 -17.037916 -39.229735 0.000000 -0.000000 0.000000 -6.805360 -6.135414 21.037621 6.302459 -9.154592 -3.430600 0.410603 -7.468243 6.169735 6.230258 17.554003 -6.757953 -7.806076 13.506132 2.316206 -18.421740 11.197993 -2.041587 -46.378147 -1.846023 -11.267069 63.891481 -75.821306 -47.540883 14.012191 -21.751762 -17.347160 14.237822 -7.934966 -13.287200 21.895542 31.178916 -7.476330 -168.998646 40.944767 -125.640409 -17.237574 37.494811 30.866948 
